<svg width="55" height="18" viewBox="0 0 55 18" fill="none" xmlns="http://www.w3.org/2000/svg">
                                        <g clip-path="url(#clip0_155_7628)">
                                        <path d="M14.6654 6.1626L9.87203 5.74927L7.9987 1.33594L6.12536 5.75594L1.33203 6.1626L4.97203 9.31594L3.8787 14.0026L7.9987 11.5159L12.1187 14.0026L11.032 9.31594L14.6654 6.1626ZM7.9987 10.2693L5.49203 11.7826L6.1587 8.92927L3.94536 7.00927L6.86537 6.75594L7.9987 4.06927L9.1387 6.7626L12.0587 7.01594L9.84537 8.93594L10.512 11.7893L7.9987 10.2693Z" fill="#EEAD06"/>
                                        </g>
                                        <path d="M18.9588 13V4.27273H22.0696C22.7457 4.27273 23.3068 4.3892 23.7528 4.62216C24.2017 4.85511 24.5369 5.17756 24.7585 5.58949C24.9801 5.99858 25.0909 6.47159 25.0909 7.00852C25.0909 7.54261 24.9787 8.01278 24.7543 8.41903C24.5327 8.82244 24.1974 9.13636 23.7486 9.3608C23.3026 9.58523 22.7415 9.69744 22.0653 9.69744H19.7088V8.56392H21.946C22.3722 8.56392 22.7188 8.50284 22.9858 8.38068C23.2557 8.25852 23.4531 8.08097 23.5781 7.84801C23.7031 7.61506 23.7656 7.33523 23.7656 7.00852C23.7656 6.67898 23.7017 6.39347 23.5739 6.15199C23.4489 5.91051 23.2514 5.72585 22.9815 5.59801C22.7145 5.46733 22.3636 5.40199 21.929 5.40199H20.2756V13H18.9588ZM23.267 9.0625L25.4233 13H23.9233L21.8097 9.0625H23.267ZM28.4957 13.1449C28.081 13.1449 27.706 13.0682 27.3707 12.9148C27.0355 12.7585 26.7699 12.5327 26.5739 12.2372C26.3807 11.9418 26.2841 11.5795 26.2841 11.1506C26.2841 10.7812 26.3551 10.4773 26.4972 10.2386C26.6392 10 26.831 9.81108 27.0724 9.67188C27.3139 9.53267 27.5838 9.42756 27.8821 9.35653C28.1804 9.28551 28.4844 9.23153 28.794 9.1946C29.1861 9.14915 29.5043 9.11222 29.7486 9.08381C29.9929 9.05256 30.1705 9.00284 30.2812 8.93466C30.392 8.86648 30.4474 8.75568 30.4474 8.60227V8.57244C30.4474 8.20028 30.3423 7.91193 30.1321 7.70739C29.9247 7.50284 29.6151 7.40057 29.2031 7.40057C28.7741 7.40057 28.4361 7.49574 28.1889 7.68608C27.9446 7.87358 27.7756 8.08239 27.6818 8.3125L26.4844 8.03977C26.6264 7.64205 26.8338 7.32102 27.1065 7.0767C27.3821 6.82955 27.6989 6.65057 28.0568 6.53977C28.4148 6.42614 28.7912 6.36932 29.1861 6.36932C29.4474 6.36932 29.7244 6.40057 30.017 6.46307C30.3125 6.52273 30.5881 6.63352 30.8438 6.79545C31.1023 6.95739 31.3139 7.18892 31.4787 7.49006C31.6435 7.78835 31.7259 8.17614 31.7259 8.65341V13H30.4815V12.1051H30.4304C30.348 12.2699 30.2244 12.4318 30.0597 12.5909C29.8949 12.75 29.6832 12.8821 29.4247 12.9872C29.1662 13.0923 28.8565 13.1449 28.4957 13.1449ZM28.7727 12.1222C29.125 12.1222 29.4261 12.0526 29.6761 11.9134C29.929 11.7741 30.1207 11.5923 30.2514 11.3679C30.3849 11.1406 30.4517 10.8977 30.4517 10.6392V9.79545C30.4063 9.84091 30.3182 9.88352 30.1875 9.9233C30.0597 9.96023 29.9134 9.9929 29.7486 10.0213C29.5838 10.0469 29.4233 10.071 29.267 10.0938C29.1108 10.1136 28.9801 10.1307 28.875 10.1449C28.6278 10.1761 28.402 10.2287 28.1974 10.3026C27.9957 10.3764 27.8338 10.483 27.7116 10.6222C27.5923 10.7585 27.5327 10.9403 27.5327 11.1676C27.5327 11.483 27.6491 11.7216 27.8821 11.8835C28.1151 12.0426 28.4119 12.1222 28.7727 12.1222ZM36.4783 6.45455V7.47727H32.9031V6.45455H36.4783ZM33.8619 4.88636H35.136V11.0781C35.136 11.3253 35.1729 11.5114 35.2468 11.6364C35.3207 11.7585 35.4158 11.8423 35.5323 11.8878C35.6516 11.9304 35.7809 11.9517 35.9201 11.9517C36.0224 11.9517 36.1119 11.9446 36.1886 11.9304C36.2653 11.9162 36.3249 11.9048 36.3675 11.8963L36.5977 12.9489C36.5238 12.9773 36.4187 13.0057 36.2823 13.0341C36.146 13.0653 35.9755 13.0824 35.771 13.0852C35.4357 13.0909 35.1232 13.0312 34.8335 12.9062C34.5437 12.7812 34.3093 12.5881 34.1303 12.3267C33.9513 12.0653 33.8619 11.7372 33.8619 11.3423V4.88636ZM37.8878 13V6.45455H39.1619V13H37.8878ZM38.5312 5.4446C38.3097 5.4446 38.1193 5.37074 37.9602 5.22301C37.804 5.07244 37.7259 4.89347 37.7259 4.68608C37.7259 4.47585 37.804 4.29687 37.9602 4.14915C38.1193 3.99858 38.3097 3.9233 38.5312 3.9233C38.7528 3.9233 38.9418 3.99858 39.098 4.14915C39.2571 4.29687 39.3366 4.47585 39.3366 4.68608C39.3366 4.89347 39.2571 5.07244 39.098 5.22301C38.9418 5.37074 38.7528 5.4446 38.5312 5.4446ZM42.1502 9.11364V13H40.8761V6.45455H42.0991V7.51989H42.18C42.3306 7.1733 42.5664 6.89489 42.8874 6.68466C43.2113 6.47443 43.619 6.36932 44.1104 6.36932C44.5565 6.36932 44.9471 6.46307 45.2823 6.65057C45.6175 6.83523 45.8775 7.1108 46.0621 7.47727C46.2468 7.84375 46.3391 8.29687 46.3391 8.83665V13H45.065V8.99006C45.065 8.51562 44.9414 8.14489 44.6942 7.87784C44.4471 7.60795 44.1076 7.47301 43.6758 7.47301C43.3803 7.47301 43.1175 7.53693 42.8874 7.66477C42.6602 7.79261 42.4798 7.98011 42.3462 8.22727C42.2156 8.47159 42.1502 8.76705 42.1502 9.11364ZM50.7923 15.5909C50.2724 15.5909 49.8249 15.5227 49.4499 15.3864C49.0778 15.25 48.7738 15.0696 48.538 14.8452C48.3022 14.6207 48.1261 14.375 48.0096 14.108L49.1048 13.6562C49.1815 13.7812 49.2837 13.9134 49.4116 14.0526C49.5423 14.1946 49.7184 14.3153 49.94 14.4148C50.1644 14.5142 50.4528 14.5639 50.805 14.5639C51.288 14.5639 51.6871 14.446 52.0025 14.2102C52.3178 13.9773 52.4755 13.6051 52.4755 13.0938V11.8068H52.3945C52.3178 11.946 52.207 12.1009 52.0621 12.2713C51.9201 12.4418 51.7241 12.5895 51.4741 12.7145C51.2241 12.8395 50.8988 12.902 50.4982 12.902C49.9812 12.902 49.5153 12.7812 49.1005 12.5398C48.6886 12.2955 48.3619 11.9361 48.1204 11.4616C47.8817 10.9844 47.7624 10.3977 47.7624 9.7017C47.7624 9.00568 47.8803 8.40909 48.1161 7.91193C48.3548 7.41477 48.6815 7.03409 49.0962 6.76989C49.511 6.50284 49.9812 6.36932 50.5067 6.36932C50.913 6.36932 51.2411 6.4375 51.4911 6.57386C51.7411 6.70739 51.9357 6.86364 52.0749 7.04261C52.217 7.22159 52.3263 7.37926 52.4031 7.51562H52.4968V6.45455H53.7454V13.1449C53.7454 13.7074 53.6147 14.169 53.3533 14.5298C53.092 14.8906 52.7383 15.1577 52.2923 15.331C51.8491 15.5043 51.3491 15.5909 50.7923 15.5909ZM50.7795 11.8452C51.146 11.8452 51.4556 11.7599 51.7085 11.5895C51.9641 11.4162 52.1573 11.169 52.288 10.848C52.4215 10.5241 52.4883 10.1364 52.4883 9.68466C52.4883 9.24432 52.4229 8.85653 52.2923 8.52131C52.1616 8.18608 51.9698 7.92472 51.717 7.73722C51.4641 7.54687 51.1516 7.4517 50.7795 7.4517C50.396 7.4517 50.0763 7.55114 49.8207 7.75C49.565 7.94602 49.3718 8.21307 49.2411 8.55114C49.1133 8.8892 49.0494 9.26705 49.0494 9.68466C49.0494 10.1136 49.1147 10.4901 49.2454 10.8139C49.3761 11.1378 49.5692 11.3906 49.8249 11.5724C50.0835 11.7543 50.4016 11.8452 50.7795 11.8452Z" fill="#667085"/>
                                        <defs>
                                        <clipPath id="clip0_155_7628">
                                        <rect width="16" height="16" fill="white"/>
                                        </clipPath>
                                        </defs>
                                    </svg>