<svg width="56" height="57" viewBox="0 0 56 57" fill="none" xmlns="http://www.w3.org/2000/svg">
<rect x="4" y="4.5" width="48" height="48" rx="24" fill="#D1FADF"/>
<rect x="4" y="4.5" width="48" height="48" rx="24" stroke="#ECFDF3" stroke-width="8"/>
<path d="M38 27.5779V28.4979C37.9988 30.6543 37.3005 32.7526 36.0093 34.4797C34.7182 36.2069 32.9033 37.4704 30.8354 38.0818C28.7674 38.6932 26.5573 38.6198 24.5345 37.8725C22.5117 37.1252 20.7847 35.744 19.611 33.935C18.4373 32.1259 17.8798 29.986 18.0217 27.8342C18.1636 25.6825 18.9972 23.6342 20.3983 21.995C21.7994 20.3557 23.6928 19.2133 25.7962 18.7381C27.8996 18.2628 30.1003 18.4802 32.07 19.3579M38 20.4979L28 30.5079L25 27.5079" stroke="#039855" stroke-width="2" stroke-linecap="round" stroke-linejoin="round"/>
</svg>
