<svg width="17" height="16" viewBox="0 0 17 16" fill="none" xmlns="http://www.w3.org/2000/svg">
<g clip-path="url(#clip0_1363_48988)">
<path d="M8.33073 1.33594C5.75073 1.33594 3.66406 3.4226 3.66406 6.0026C3.66406 9.5026 8.33073 14.6693 8.33073 14.6693C8.33073 14.6693 12.9974 9.5026 12.9974 6.0026C12.9974 3.4226 10.9107 1.33594 8.33073 1.33594ZM4.9974 6.0026C4.9974 4.1626 6.49073 2.66927 8.33073 2.66927C10.1707 2.66927 11.6641 4.1626 11.6641 6.0026C11.6641 7.9226 9.74406 10.7959 8.33073 12.5893C6.94406 10.8093 4.9974 7.9026 4.9974 6.0026Z" fill="#101828"/>
<path d="M8.33073 7.66927C9.2512 7.66927 9.9974 6.92308 9.9974 6.0026C9.9974 5.08213 9.2512 4.33594 8.33073 4.33594C7.41025 4.33594 6.66406 5.08213 6.66406 6.0026C6.66406 6.92308 7.41025 7.66927 8.33073 7.66927Z" fill="#101828"/>
</g>
<defs>
<clipPath id="clip0_1363_48988">
<rect width="16" height="16" fill="white" transform="translate(0.332031)"/>
</clipPath>
</defs>
</svg>
