<svg width="17" height="16" viewBox="0 0 17 16" fill="none" xmlns="http://www.w3.org/2000/svg">
<g clip-path="url(#clip0_1363_49000)">
<path d="M13.6641 4.0026H12.2107C12.2841 3.79594 12.3307 3.56927 12.3307 3.33594C12.3307 2.22927 11.4374 1.33594 10.3307 1.33594C9.63073 1.33594 9.02406 1.69594 8.66406 2.23594L8.33073 2.6826L7.9974 2.22927C7.6374 1.69594 7.03073 1.33594 6.33073 1.33594C5.22406 1.33594 4.33073 2.22927 4.33073 3.33594C4.33073 3.56927 4.3774 3.79594 4.45073 4.0026H2.9974C2.2574 4.0026 1.67073 4.59594 1.67073 5.33594L1.66406 12.6693C1.66406 13.4093 2.2574 14.0026 2.9974 14.0026H13.6641C14.4041 14.0026 14.9974 13.4093 14.9974 12.6693V5.33594C14.9974 4.59594 14.4041 4.0026 13.6641 4.0026ZM10.3307 2.66927C10.6974 2.66927 10.9974 2.96927 10.9974 3.33594C10.9974 3.7026 10.6974 4.0026 10.3307 4.0026C9.96406 4.0026 9.66406 3.7026 9.66406 3.33594C9.66406 2.96927 9.96406 2.66927 10.3307 2.66927ZM6.33073 2.66927C6.6974 2.66927 6.9974 2.96927 6.9974 3.33594C6.9974 3.7026 6.6974 4.0026 6.33073 4.0026C5.96406 4.0026 5.66406 3.7026 5.66406 3.33594C5.66406 2.96927 5.96406 2.66927 6.33073 2.66927ZM13.6641 12.6693H2.9974V11.3359H13.6641V12.6693ZM13.6641 9.33594H2.9974V5.33594H6.38406L4.9974 7.2226L6.0774 8.0026L7.66406 5.8426L8.33073 4.93594L8.9974 5.8426L10.5841 8.0026L11.6641 7.2226L10.2774 5.33594H13.6641V9.33594Z" fill="#101828"/>
</g>
<defs>
<clipPath id="clip0_1363_49000">
<rect width="16" height="16" fill="white" transform="translate(0.332031)"/>
</clipPath>
</defs>
</svg>
