<svg width="16" height="16" viewBox="0 0 16 16" fill="none" xmlns="http://www.w3.org/2000/svg">
                                        <g clip-path="url(#clip0_155_7020)">
                                        <path d="M7.99203 1.33594C4.31203 1.33594 1.33203 4.3226 1.33203 8.0026C1.33203 11.6826 4.31203 14.6693 7.99203 14.6693C11.6787 14.6693 14.6654 11.6826 14.6654 8.0026C14.6654 4.3226 11.6787 1.33594 7.99203 1.33594ZM7.9987 13.3359C5.05203 13.3359 2.66536 10.9493 2.66536 8.0026C2.66536 5.05594 5.05203 2.66927 7.9987 2.66927C10.9454 2.66927 13.332 5.05594 13.332 8.0026C13.332 10.9493 10.9454 13.3359 7.9987 13.3359ZM8.33203 4.66927H7.33203V8.66927L10.832 10.7693L11.332 9.94927L8.33203 8.16927V4.66927Z" fill="#101828"/>
                                        </g>
                                        <defs>
                                        <clipPath id="clip0_155_7020">
                                        <rect width="16" height="16" fill="white"/>
                                        </clipPath>
                                        </defs>
                                    </svg>