<svg width="17" height="16" viewBox="0 0 17 16" fill="none" xmlns="http://www.w3.org/2000/svg">
<g clip-path="url(#clip0_1363_48983)">
<path d="M4.9987 7.33594H6.33203V8.66927H4.9987V7.33594ZM14.332 4.0026V13.3359C14.332 14.0693 13.732 14.6693 12.9987 14.6693H3.66536C2.92536 14.6693 2.33203 14.0693 2.33203 13.3359L2.3387 4.0026C2.3387 3.26927 2.92536 2.66927 3.66536 2.66927H4.33203V1.33594H5.66536V2.66927H10.9987V1.33594H12.332V2.66927H12.9987C13.732 2.66927 14.332 3.26927 14.332 4.0026ZM3.66536 5.33594H12.9987V4.0026H3.66536V5.33594ZM12.9987 13.3359V6.66927H3.66536V13.3359H12.9987ZM10.332 8.66927H11.6654V7.33594H10.332V8.66927ZM7.66536 8.66927H8.9987V7.33594H7.66536V8.66927Z" fill="#101828"/>
</g>
<defs>
<clipPath id="clip0_1363_48983">
<rect width="16" height="16" fill="white" transform="translate(0.332031)"/>
</clipPath>
</defs>
</svg>
