<svg width="17" height="16" viewBox="0 0 17 16" fill="none" xmlns="http://www.w3.org/2000/svg">
<g clip-path="url(#clip0_1363_48994)">
<path d="M8.33203 1.33594L4.66536 7.33594H11.9987L8.33203 1.33594ZM8.33203 3.89594L9.6187 6.0026H7.0387L8.33203 3.89594ZM11.9987 8.66927C10.3387 8.66927 8.9987 10.0093 8.9987 11.6693C8.9987 13.3293 10.3387 14.6693 11.9987 14.6693C13.6587 14.6693 14.9987 13.3293 14.9987 11.6693C14.9987 10.0093 13.6587 8.66927 11.9987 8.66927ZM11.9987 13.3359C11.0787 13.3359 10.332 12.5893 10.332 11.6693C10.332 10.7493 11.0787 10.0026 11.9987 10.0026C12.9187 10.0026 13.6654 10.7493 13.6654 11.6693C13.6654 12.5893 12.9187 13.3359 11.9987 13.3359ZM2.33203 14.3359H7.66536V9.0026H2.33203V14.3359ZM3.66536 10.3359H6.33203V13.0026H3.66536V10.3359Z" fill="#101828"/>
</g>
<defs>
<clipPath id="clip0_1363_48994">
<rect width="16" height="16" fill="white" transform="translate(0.332031)"/>
</clipPath>
</defs>
</svg>
