<svg width="20" height="20" viewBox="0 0 20 20" fill="none" xmlns="http://www.w3.org/2000/svg">
<g clip-path="url(#clip0_1370_49240)">
<path d="M3.33464 4.9974H1.66797V16.6641C1.66797 17.5807 2.41797 18.3307 3.33464 18.3307H15.0013V16.6641H3.33464V4.9974ZM16.668 1.66406H6.66797C5.7513 1.66406 5.0013 2.41406 5.0013 3.33073V13.3307C5.0013 14.2474 5.7513 14.9974 6.66797 14.9974H16.668C17.5846 14.9974 18.3346 14.2474 18.3346 13.3307V3.33073C18.3346 2.41406 17.5846 1.66406 16.668 1.66406ZM16.668 13.3307H6.66797V3.33073H16.668V13.3307ZM10.0013 4.58073V12.0807L15.0013 8.33073L10.0013 4.58073Z" fill="#101828"/>
</g>
<defs>
<clipPath id="clip0_1370_49240">
<rect width="20" height="20" fill="white"/>
</clipPath>
</defs>
</svg>
