<svg width="20" height="20" viewBox="0 0 20 20" fill="none" xmlns="http://www.w3.org/2000/svg">
<g clip-path="url(#clip0_1370_49205)">
<path d="M17.4987 3.33594H2.4987C1.58203 3.33594 0.832031 4.08594 0.832031 5.0026V15.8359C0.832031 16.7526 1.58203 17.5026 2.4987 17.5026H17.4987C18.4154 17.5026 19.1654 16.7526 19.1654 15.8359V5.0026C19.1654 4.08594 18.4154 3.33594 17.4987 3.33594ZM2.4987 15.8359V5.0026H9.16536V15.8359H2.4987ZM17.4987 15.8359H10.832V5.0026H17.4987V15.8359ZM11.6654 7.91927H16.6654V9.16927H11.6654V7.91927ZM11.6654 10.0026H16.6654V11.2526H11.6654V10.0026ZM11.6654 12.0859H16.6654V13.3359H11.6654V12.0859Z" fill="#101828"/>
</g>
<defs>
<clipPath id="clip0_1370_49205">
<rect width="20" height="20" fill="white"/>
</clipPath>
</defs>
</svg>
